:SAMPLES-PER-SECOND 24
:FULLY-SPECIFIED
:DEGREES
184
root  2.45495 38.2244 13.8037 140.921 29.2405 150.862
RightUpLeg  -2.36792 -8.15094 -15.9105
RightLeg  34.8291 14.8761 10.6418
RightFoot  -0.26742 1.51308 -15.5233
RightToes  -1.46203e-006 3.27826e-006 1.63871e-007
Spine  11.0103 4.974 7.28736
Spine1  17.4481 12.2043 -15.7758
HEad  7.75805 24.3948 -13.0367
LeftShoulder1  1.49668 -2.56852 -18.0495
LeftArm  -45.5441 -23.4826 -1.21155
LeftForeArm  49.6101 -77.8993 -61.044
LeftHand  -0.50543 2.60576 20.8927
RightShoulder  1.94551 5.07811 15.9744
RightArm  54.1269 63.2589 107.89
RightForeArm  32.0642 59.6298 16.3546
RightHand  -1.84731 6.59413 -18.0672
LeftUpLeg  -29.9514 15.0356 11.2362
LeftLeg  81.3669 -0.571548 -2.59014
LeftFoot  23.4962 1.82004 -6.30303
LeftToes  1.24767e-006 1.47042e-008 1.32732e-009
185
root  2.81779 38.4936 14.4626 148.687 24.0222 158.591
RightUpLeg  -1.71305 -16.9705 -12.1033
RightLeg  28.9295 16.5271 9.43521
RightFoot  2.46769 1.73848 -14.1343
RightToes  -1.46203e-006 3.27826e-006 1.63871e-007
Spine  8.43579 4.44829 7.44623
Spine1  16.7077 10.0712 -12.0465
HEad  6.65715 19.8132 -10.0621
LeftShoulder1  1.35592 -2.62218 -15.3167
LeftArm  -46.9829 -37.6911 -4.4978
LeftForeArm  44.4405 -77.025 -53.9086
LeftHand  -0.546811 2.2045 19.7868
RightShoulder  1.6421 4.54052 13.4951
RightArm  53.1448 69.2954 109.721
RightForeArm  29.9875 57.3329 14.9667
RightHand  -1.87428 6.28088 -18.7945
LeftUpLeg  -20.4625 17.201 6.22386
LeftLeg  76.1678 -0.272182 0.0571953
LeftFoot  17.7846 1.24816 -5.26245
LeftToes  1.24767e-006 1.47042e-008 1.32732e-009
186
root  3.02352 38.4954 15.0924 155.885 16.7162 165.679
RightUpLeg  -3.28095 -24.0825 -7.26974
RightLeg  23.9371 15.3704 7.0068
RightFoot  4.25465 1.84586 -13.1903
RightToes  -1.46203e-006 3.27826e-006 1.63871e-007
Spine  5.39677 3.57389 7.49183
Spine1  14.757 7.47638 -8.00747
HEad  6.59084 14.3488 -7.17119
LeftShoulder1  1.29133 -2.75284 -13.6788
LeftArm  -46.0844 -51.5958 -9.59254
LeftForeArm  36.0855 -75.0139 -43.6726
LeftHand  -0.574767 1.92866 19.1681
RightShoulder  1.36073 3.7877 11.5592
RightArm  51.3036 75.7852 109.989
RightForeArm  27.8023 53.5989 12.9828
RightHand  -1.76436 5.91078 -18.2795
LeftUpLeg  -9.81871 18.5828 5.22399
LeftLeg  68.1003 1.00415 3.4849
LeftFoot  18.2325 1.61893 -6.54482
LeftToes  1.24767e-006 1.47042e-008 1.32732e-009
187
root  3.172 38.4268 15.8459 160.979 6.52458 171.106
RightUpLeg  -5.60159 -23.8436 -3.42747
RightLeg  19.3995 5.4167 3.34242
RightFoot  5.82191 1.93655 -12.5058
RightToes  -1.46203e-006 3.27826e-006 1.63871e-007
Spine  3.01121 1.73012 5.30691
Spine1  13.07 3.9029 -3.58915
HEad  5.64164 8.7955 -5.08065
LeftShoulder1  1.19713 -2.78379 -11.9127
LeftArm  -40.9366 -63.4667 -19.3711
LeftForeArm  29.0207 -72.6912 -36.3672
LeftHand  -0.634057 1.62034 19.4407
RightShoulder  1.07574 2.83272 9.67817
RightArm  45.3135 82.1193 106.23
RightForeArm  25.6849 49.3574 11.1268
RightHand  -1.63221 5.22586 -18.003
LeftUpLeg  0.802415 17.7011 7.26607
LeftLeg  58.988 2.71567 5.43234
LeftFoot  17.0377 1.84334 -7.69974
LeftToes  1.24767e-006 1.47042e-008 1.32732e-009
188
root  3.29139 38.5887 16.7389 164.277 -6.79265 174.396
RightUpLeg  -5.99448 -18.2263 -3.97151
RightLeg  13.7 -10.5505 1.95941
RightFoot  9.01805 2.22631 -11.9894
RightToes  -1.46203e-006 3.27826e-006 1.63871e-007
Spine  1.69229 -0.816803 -0.114711
Spine1  11.7033 -0.604553 1.36889
HEad  3.70112 2.12487 -2.96271
LeftShoulder1  1.01734 -2.56729 -9.37959
LeftArm  -21.3139 -71.5206 -45.0712
LeftForeArm  25.6017 -70.8893 -32.1201
LeftHand  -0.686538 1.32112 19.5257
RightShoulder  0.801281 1.60761 8.2337
RightArm  -8.54938 85.6887 54.1967
RightForeArm  24.3638 47.1859 10.3039
RightHand  -1.5243 3.86378 -19.231
LeftUpLeg  9.59445 14.7105 10.0669
LeftLeg  50.3999 3.38002 4.83995
LeftFoot  10.3771 1.48373 -8.05583
LeftToes  1.24767e-006 1.47042e-008 1.32732e-009
189
root  3.26211 38.8148 17.9438 167.14 -20.6078 175.804
RightUpLeg  -6.16604 -12.1411 -7.97585
RightLeg  8.24003 -27.3763 2.90143
RightFoot  13.8451 2.44703 -10.5025
RightToes  -1.46203e-006 3.27826e-006 1.63871e-007
Spine  1.32394 -3.04544 -5.10938
Spine1  10.9254 -4.1436 5.11935
HEad  0.518781 -5.91917 -0.454168
LeftShoulder1  1.00465 -2.65293 -8.88707
LeftArm  18.7989 -72.4439 -89.8042
LeftForeArm  24.2989 -70.0123 -30.3794
LeftHand  -0.718022 1.16504 19.6844
RightShoulder  0.68148 0.790943 8.46921
RightArm  -52.933 78.6632 10.5293
RightForeArm  24.9434 51.7147 12.167
RightHand  -1.17638 1.36959 -20.1924
LeftUpLeg  14.5184 10.7799 12.1002
LeftLeg  41.7361 3.42541 3.67042
LeftFoot  5.65549 1.11532 -7.681
LeftToes  1.24767e-006 1.47042e-008 1.32732e-009
190
root  3.09317 38.7939 19.6011 170.062 -32.5996 175.893
RightUpLeg  -7.99603 -15.1772 -13.4068
RightLeg  8.121 -32.4682 2.79926
RightFoot  17.7337 1.66789 -5.96161
RightToes  -1.46203e-006 3.27826e-006 1.63871e-007
Spine  1.94208 -4.47149 -6.4173
Spine1  10.8336 -5.75129 5.47894
HEad  -4.07882 -13.8749 2.28989
LeftShoulder1  1.1998 -3.32569 -10.2742
LeftArm  36.9864 -65.0314 -107.867
LeftForeArm  22.3904 -70.3509 -31.4731
LeftHand  -0.83652 0.892312 21.5006
RightShoulder  0.780084 0.911645 10.4687
RightArm  -56.0309 65.5863 7.33475
RightForeArm  28.3453 63.7926 20.4505
RightHand  -0.825064 -0.894318 -21.2102
LeftUpLeg  15.2341 8.34157 13.1797
LeftLeg  37.0116 3.73626 3.38618
LeftFoot  5.82771 1.05966 -7.17772
LeftToes  1.24767e-006 1.47042e-008 1.32732e-009
